<?xml version="1.0" standalone="no"?>
<!DOCTYPE svg PUBLIC "-//W3C//DTD SVG 20010904//EN"
 "http://www.w3.org/TR/2001/REC-SVG-20010904/DTD/svg10.dtd">
<svg version="1.0" xmlns="http://www.w3.org/2000/svg"
 width="720.000000pt" height="720.000000pt" viewBox="0 0 720.000000 720.000000"
 preserveAspectRatio="xMidYMid meet">
<metadata>
Created by potrace 1.14, written by Peter Selinger 2001-2017
</metadata>
<g transform="translate(0.000000,720.000000) scale(0.100000,-0.100000)"
fill="#000000" stroke="none">
<path d="M3380 5759 c-622 -57 -1213 -372 -1594 -849 -233 -293 -380 -627
-442 -1005 -25 -153 -25 -459 0 -610 78 -472 281 -865 620 -1200 351 -346 793
-564 1306 -642 163 -24 511 -24 675 1 344 53 674 176 945 354 1018 665 1302
1962 647 2947 -463 696 -1295 1083 -2157 1004z m350 -939 c259 -34 491 -150
670 -336 97 -101 149 -174 208 -289 169 -337 172 -724 8 -1060 -277 -566 -933
-807 -1484 -545 -131 63 -220 125 -323 229 -107 108 -160 181 -223 308 -89
179 -121 323 -120 538 0 207 35 354 125 531 219 432 678 683 1139 624z"/>
</g>
</svg>
